<svg xmlns="http://www.w3.org/2000/svg" id="Layer_1" data-name="Layer 1" viewBox="0 0 600 600"><defs><style>.cls-1{fill:#4c4c4c}.cls-2{fill:#7f7f7f}</style></defs><title>easing-curveUntitled-1</title><path d="M782.68,200.68a8.61,8.61,0,0,0-1.75-.18,7.27,7.27,0,0,0-.92.07s0,0,0-.07v.07a8.07,8.07,0,0,0-.94.18C205.62,214.62,437.16,800.5,200,800.5H800v-580h-.81v0l.81,0v-20C794.14,200.5,788.38,200.57,782.68,200.68Z" class="cls-1" transform="translate(-200 -200.5)"/><rect width="600" height="600" class="cls-2"/><path d="M200,800.5H800v-600C320,200.5,680,800.5,200,800.5Z" class="cls-1" transform="translate(-200 -200.5)"/></svg>